<mxfile host="www.draw.io" modified="2019-12-07T04:59:01.000Z" agent="Mozilla/5.0 (Windows NT 10.0; WOW64) AppleWebKit/537.36 (KHTML, like Gecko) Chrome/73.0.3664.3 Safari/537.36" etag="r4i-uR_h_ilk_IM_lhzD" version="12.3.6" type="github" pages="1">
  <diagram name="Page-1" id="74e2e168-ea6b-b213-b513-2b3c1d86103e">
    <mxGraphModel dx="1408" dy="780" grid="1" gridSize="10" guides="1" tooltips="1" connect="1" arrows="1" fold="1" page="1" pageScale="1" pageWidth="1100" pageHeight="850" background="#ffffff" math="0" shadow="0">
      <root>
        <mxCell id="0"/>
        <mxCell id="1" parent="0"/>
        <mxCell id="77e6c97f196da883-1" value="&lt;font style=&quot;font-size: 18px&quot;&gt;&amp;nbsp; &amp;nbsp; 详细设计流程图&lt;/font&gt;" style="swimlane;html=1;childLayout=stackLayout;startSize=51;rounded=0;shadow=0;labelBackgroundColor=none;strokeWidth=1;fontFamily=Verdana;fontSize=8;align=left;" parent="1" vertex="1">
          <mxGeometry x="220" y="30" width="750" height="570" as="geometry"/>
        </mxCell>
        <mxCell id="77e6c97f196da883-2" value="输入" style="swimlane;html=1;startSize=20;" parent="77e6c97f196da883-1" vertex="1">
          <mxGeometry y="51" width="160" height="519" as="geometry"/>
        </mxCell>
        <mxCell id="1M6lAa_YY1CRUgkVT424-1" value="故事点" style="shape=document;whiteSpace=wrap;html=1;boundedLbl=1;" vertex="1" parent="77e6c97f196da883-2">
          <mxGeometry x="30" y="129" width="100" height="71" as="geometry"/>
        </mxCell>
        <mxCell id="77e6c97f196da883-3" value="开发工程师" style="swimlane;html=1;startSize=20;" parent="77e6c97f196da883-1" vertex="1">
          <mxGeometry x="160" y="51" width="210" height="519" as="geometry"/>
        </mxCell>
        <mxCell id="1M6lAa_YY1CRUgkVT424-16" style="edgeStyle=orthogonalEdgeStyle;rounded=0;orthogonalLoop=1;jettySize=auto;html=1;entryX=0.5;entryY=0;entryDx=0;entryDy=0;" edge="1" parent="77e6c97f196da883-3" source="1M6lAa_YY1CRUgkVT424-4" target="1M6lAa_YY1CRUgkVT424-6">
          <mxGeometry relative="1" as="geometry"/>
        </mxCell>
        <mxCell id="1M6lAa_YY1CRUgkVT424-4" value="开始" style="shape=ext;double=1;rounded=1;whiteSpace=wrap;html=1;arcSize=50;" vertex="1" parent="77e6c97f196da883-3">
          <mxGeometry x="35" y="59" width="90" height="40" as="geometry"/>
        </mxCell>
        <mxCell id="1M6lAa_YY1CRUgkVT424-15" value="" style="edgeStyle=orthogonalEdgeStyle;rounded=0;orthogonalLoop=1;jettySize=auto;html=1;" edge="1" parent="77e6c97f196da883-3" source="1M6lAa_YY1CRUgkVT424-6" target="1M6lAa_YY1CRUgkVT424-9">
          <mxGeometry relative="1" as="geometry"/>
        </mxCell>
        <mxCell id="1M6lAa_YY1CRUgkVT424-6" value="&lt;span style=&quot;text-align: left&quot;&gt;功能设计&lt;/span&gt;" style="rounded=0;whiteSpace=wrap;html=1;" vertex="1" parent="77e6c97f196da883-3">
          <mxGeometry x="25" y="149" width="110" height="51" as="geometry"/>
        </mxCell>
        <mxCell id="1M6lAa_YY1CRUgkVT424-17" value="" style="edgeStyle=orthogonalEdgeStyle;rounded=0;orthogonalLoop=1;jettySize=auto;html=1;" edge="1" parent="77e6c97f196da883-3" source="1M6lAa_YY1CRUgkVT424-9" target="1M6lAa_YY1CRUgkVT424-10">
          <mxGeometry relative="1" as="geometry"/>
        </mxCell>
        <mxCell id="1M6lAa_YY1CRUgkVT424-9" value="&lt;div style=&quot;text-align: left&quot;&gt;&lt;span&gt;数据模型设计&lt;/span&gt;&lt;/div&gt;" style="rounded=0;whiteSpace=wrap;html=1;" vertex="1" parent="77e6c97f196da883-3">
          <mxGeometry x="25" y="239" width="110" height="51" as="geometry"/>
        </mxCell>
        <mxCell id="1M6lAa_YY1CRUgkVT424-10" value="&lt;span style=&quot;text-align: left&quot;&gt;接口设计&lt;/span&gt;" style="rounded=0;whiteSpace=wrap;html=1;" vertex="1" parent="77e6c97f196da883-3">
          <mxGeometry x="25" y="329" width="110" height="51" as="geometry"/>
        </mxCell>
        <mxCell id="77e6c97f196da883-4" value="详细设计负责人" style="swimlane;html=1;startSize=20;" parent="77e6c97f196da883-1" vertex="1">
          <mxGeometry x="370" y="51" width="200" height="519" as="geometry"/>
        </mxCell>
        <mxCell id="1M6lAa_YY1CRUgkVT424-24" value="通过" style="edgeStyle=orthogonalEdgeStyle;rounded=0;orthogonalLoop=1;jettySize=auto;html=1;entryX=0.5;entryY=0;entryDx=0;entryDy=0;" edge="1" parent="77e6c97f196da883-4" source="1M6lAa_YY1CRUgkVT424-20" target="1M6lAa_YY1CRUgkVT424-23">
          <mxGeometry relative="1" as="geometry"/>
        </mxCell>
        <mxCell id="1M6lAa_YY1CRUgkVT424-20" value="审核" style="rhombus;whiteSpace=wrap;html=1;" vertex="1" parent="77e6c97f196da883-4">
          <mxGeometry x="30" y="324" width="85" height="61" as="geometry"/>
        </mxCell>
        <mxCell id="1M6lAa_YY1CRUgkVT424-23" value="结束" style="shape=ext;double=1;rounded=1;whiteSpace=wrap;html=1;arcSize=50;" vertex="1" parent="77e6c97f196da883-4">
          <mxGeometry x="27.5" y="429" width="90" height="40" as="geometry"/>
        </mxCell>
        <mxCell id="77e6c97f196da883-5" value="输出" style="swimlane;html=1;startSize=20;" parent="77e6c97f196da883-1" vertex="1">
          <mxGeometry x="570" y="51" width="180" height="519" as="geometry"/>
        </mxCell>
        <mxCell id="1M6lAa_YY1CRUgkVT424-13" style="edgeStyle=orthogonalEdgeStyle;rounded=0;orthogonalLoop=1;jettySize=auto;html=1;entryX=0.5;entryY=0;entryDx=0;entryDy=0;" edge="1" parent="77e6c97f196da883-5" source="1M6lAa_YY1CRUgkVT424-11" target="1M6lAa_YY1CRUgkVT424-12">
          <mxGeometry relative="1" as="geometry"/>
        </mxCell>
        <mxCell id="1M6lAa_YY1CRUgkVT424-11" value="天鸿数据模型" style="shape=document;whiteSpace=wrap;html=1;boundedLbl=1;" vertex="1" parent="77e6c97f196da883-5">
          <mxGeometry x="50" y="99" width="100" height="71" as="geometry"/>
        </mxCell>
        <mxCell id="1M6lAa_YY1CRUgkVT424-12" value="元数据系统模型" style="shape=document;whiteSpace=wrap;html=1;boundedLbl=1;" vertex="1" parent="77e6c97f196da883-5">
          <mxGeometry x="50" y="239" width="100" height="70" as="geometry"/>
        </mxCell>
        <mxCell id="1M6lAa_YY1CRUgkVT424-22" style="edgeStyle=orthogonalEdgeStyle;rounded=0;orthogonalLoop=1;jettySize=auto;html=1;entryX=0;entryY=0.5;entryDx=0;entryDy=0;" edge="1" parent="77e6c97f196da883-1" source="1M6lAa_YY1CRUgkVT424-10" target="1M6lAa_YY1CRUgkVT424-20">
          <mxGeometry relative="1" as="geometry"/>
        </mxCell>
        <mxCell id="1M6lAa_YY1CRUgkVT424-28" style="edgeStyle=orthogonalEdgeStyle;rounded=0;orthogonalLoop=1;jettySize=auto;html=1;entryX=1;entryY=0.5;entryDx=0;entryDy=0;" edge="1" parent="77e6c97f196da883-1" source="1M6lAa_YY1CRUgkVT424-20" target="1M6lAa_YY1CRUgkVT424-6">
          <mxGeometry relative="1" as="geometry">
            <Array as="points">
              <mxPoint x="530" y="406"/>
              <mxPoint x="530" y="226"/>
            </Array>
          </mxGeometry>
        </mxCell>
        <mxCell id="1M6lAa_YY1CRUgkVT424-29" value="不通过" style="text;html=1;align=center;verticalAlign=middle;resizable=0;points=[];;labelBackgroundColor=#ffffff;" vertex="1" connectable="0" parent="1M6lAa_YY1CRUgkVT424-28">
          <mxGeometry x="-0.3284" relative="1" as="geometry">
            <mxPoint as="offset"/>
          </mxGeometry>
        </mxCell>
      </root>
    </mxGraphModel>
  </diagram>
</mxfile>
